# xmcd
#
# Track frame offsets: 
#        151
#        12629
#        27656
#        43893
#        56402
#        75751
#        88459
#        108704
#        121815
#        140846
#
# Disc length: 2148 seconds
#
# Revision: 0
# Processed by: cddbd v1.5.2PL0 Copyright (c) Steve Scherf et al.
# Submitted via: ExactAudioCopyFreeDBPlugin 1.0
#
DISCID=8c08620a
DTITLE=The Laws - Estimated Time Of Arrival
DYEAR=2000
DGENRE=Country
TTITLE0=Hobo Trail
TTITLE1=Estimated Time Of Arrival
TTITLE2=Waiting Out The Storm
TTITLE3=Willow And The Dove
TTITLE4=Trail Of Diamonds
TTITLE5=Stayin' Up Late
TTITLE6=Stone, Glass and Wood
TTITLE7=One Track Mind
TTITLE8=Believe Our Love
TTITLE9=Dust Off Our Dreams
EXTD=
EXTT0=
EXTT1=
EXTT2=
EXTT3=
EXTT4=
EXTT5=
EXTT6=
EXTT7=
EXTT8=
EXTT9=
PLAYORDER=
